<mxfile host="app.diagrams.net" modified="2023-11-15T11:40:28.313Z" agent="Mozilla/5.0 (Macintosh; Intel Mac OS X 10_15_7) AppleWebKit/537.36 (KHTML, like Gecko) Chrome/118.0.0.0 Safari/537.36" version="21.8.2" etag="es8mlk8C7bt31_tyhl6s" type="github">
  <diagram name="Page-1" id="es2AEK7CHcxZtXGr5Bw7">
    <mxGraphModel>
      <root>
        <mxCell id="0" />
        <mxCell id="1" parent="0" />
      </root>
    </mxGraphModel>
  </diagram>
</mxfile>
